<svg xmlns="http://www.w3.org/2000/svg" width="151" height="69" viewBox="0 0 151 69">
  <g fill="#000" fill-rule="evenodd">
      <path d="M47.779.963h6.926v-.64h-6.926zM47.779 32.428h6.926v-.64h-6.926zM47.779 59.073h6.926v-.64h-6.926zM47.779 68.428h6.926v-.64h-6.926zM47.733 52.102h3.976v-.56h-3.185l3.101-3.878v-.56h-3.654v.56h2.87l-3.108 3.878v.56zm7.69-3.619h-.595v2.044c0 .163-.022.313-.066.451a1.034 1.034 0 0 1-.2.361.886.886 0 0 1-.332.238 1.215 1.215 0 0 1-.473.084c-.228 0-.408-.066-.539-.196-.13-.131-.196-.308-.196-.532v-2.45h-.595v2.38c0 .196.02.374.06.535.039.161.108.3.206.417a.997.997 0 0 0 .385.273c.159.065.357.098.595.098.262 0 .491-.054.69-.161.198-.108.36-.273.486-.497h.014v.574h.56v-3.619zm1.054 3.619h.595v-1.61c0-.229.024-.434.07-.616a1.2 1.2 0 0 1 .224-.462.96.96 0 0 1 .406-.287c.168-.066.371-.098.609-.098v-.63c-.322-.01-.588.056-.798.196-.21.14-.387.357-.532.651h-.014v-.763h-.56v3.619zm2.577-4.27h.595v-.728h-.595v.728zm0 4.27h.595v-3.619h-.595v3.619zm4.776-2.457a1.468 1.468 0 0 0-.164-.557 1.19 1.19 0 0 0-.34-.388c-.14-.103-.3-.179-.479-.228a2.195 2.195 0 0 0-.578-.073c-.289 0-.54.05-.752.15-.213.1-.39.238-.532.413-.143.175-.249.38-.319.616a2.66 2.66 0 0 0-.105.76c0 .27.036.519.109.745.072.226.179.421.322.585.142.163.319.29.532.381.212.091.456.137.731.137.457 0 .821-.124 1.092-.371.271-.248.439-.593.504-1.036h-.609c-.037.275-.14.491-.308.647-.168.156-.397.235-.686.235a.986.986 0 0 1-.486-.112.952.952 0 0 1-.326-.298 1.305 1.305 0 0 1-.185-.423 1.999 1.999 0 0 1-.06-.49c0-.182.019-.359.056-.529.037-.17.099-.321.186-.451a.948.948 0 0 1 .346-.315c.145-.08.324-.119.539-.119.247 0 .447.063.599.189.151.126.25.303.297.532h.616zm.861 2.457h.595v-2.044c0-.164.022-.314.067-.452.044-.138.11-.258.199-.36a.891.891 0 0 1 .332-.238c.134-.056.291-.084.473-.084.229 0 .408.065.539.196.131.13.196.308.196.532v2.45h.595v-2.38c0-.196-.02-.375-.059-.536-.04-.161-.109-.3-.207-.416a.97.97 0 0 0-.385-.273 1.559 1.559 0 0 0-.595-.098c-.107 0-.218.011-.333.035a1.394 1.394 0 0 0-.325.108 1.141 1.141 0 0 0-.284.193.819.819 0 0 0-.199.28h-.014v-1.911h-.595v4.998zm9.996-4.998h-.665v3.192c0 .443-.111.781-.332 1.015-.222.233-.545.35-.97.35-.443 0-.785-.117-1.025-.35-.241-.234-.361-.572-.361-1.015v-3.192h-.665v3.192c0 .331.047.618.14.861.093.242.227.443.403.602.174.158.389.275.644.35.254.074.542.112.864.112.625 0 1.109-.163 1.453-.487.343-.324.514-.804.514-1.438v-3.192zm1.128 4.998h.595v-2.044c0-.164.022-.314.067-.452.044-.138.111-.258.199-.36a.887.887 0 0 1 .333-.238 1.21 1.21 0 0 1 .472-.084c.229 0 .409.065.539.196.131.13.196.308.196.532v2.45h.595v-2.38c0-.196-.02-.375-.059-.536-.04-.161-.109-.3-.207-.416a.97.97 0 0 0-.385-.273 1.555 1.555 0 0 0-.595-.098c-.261 0-.491.053-.689.161a1.228 1.228 0 0 0-.487.497h-.014v-.574h-.56v3.619zm4.078-4.27h.595v-.728h-.595v.728zm0 4.27h.595v-3.619h-.595v3.619zm4.624-3.619h-.623l-.987 3.017h-.014l-1.015-3.017h-.665l1.344 3.619h.637l1.323-3.619zm1.025 1.463c.009-.14.039-.272.091-.396.051-.124.121-.232.21-.325a.946.946 0 0 1 .318-.221c.124-.054.263-.08.417-.08a1.021 1.021 0 0 1 .948.623c.054.126.085.259.095.399h-2.079zm2.065 1.008c-.052.238-.159.415-.322.532a1.04 1.04 0 0 1-.616.175c-.196 0-.367-.033-.511-.098a1 1 0 0 1-.56-.641 1.425 1.425 0 0 1-.056-.451h2.709a2.894 2.894 0 0 0-.06-.693 2.008 2.008 0 0 0-.266-.672 1.58 1.58 0 0 0-.511-.508c-.212-.133-.479-.199-.801-.199a1.6 1.6 0 0 0-1.222.532 1.79 1.79 0 0 0-.353.598 2.188 2.188 0 0 0-.126.753c.009.275.05.529.122.763.073.233.182.434.327.602.145.168.323.299.536.395.213.096.464.144.754.144.412 0 .753-.105 1.025-.315.271-.21.446-.516.526-.917h-.595zm1.46 1.148h.595v-1.61c0-.229.024-.434.07-.616a1.2 1.2 0 0 1 .224-.462.96.96 0 0 1 .406-.287c.168-.066.371-.098.609-.098v-.63c-.322-.01-.588.056-.798.196-.21.14-.387.357-.532.651h-.014v-.763h-.56v3.619zm2.385-1.141c.009.224.056.414.14.57.084.156.196.282.336.378.14.096.299.166.479.21.18.044.372.067.578.067.182 0 .365-.019.549-.056.184-.037.35-.1.497-.189.147-.088.266-.205.357-.352.091-.147.137-.327.137-.541a.842.842 0 0 0-.102-.432.901.901 0 0 0-.266-.29 1.446 1.446 0 0 0-.378-.185 4.757 4.757 0 0 0-.437-.119c-.14-.032-.28-.064-.42-.094a2.42 2.42 0 0 1-.378-.113.906.906 0 0 1-.277-.166.334.334 0 0 1-.108-.26c0-.09.023-.165.07-.226a.475.475 0 0 1 .182-.144.898.898 0 0 1 .248-.074c.091-.014.181-.021.27-.021.098 0 .194.01.29.031a.835.835 0 0 1 .259.102.584.584 0 0 1 .291.476h.595a1.334 1.334 0 0 0-.14-.55.946.946 0 0 0-.319-.35 1.318 1.318 0 0 0-.462-.182 2.873 2.873 0 0 0-.563-.052c-.159 0-.319.019-.48.059-.161.04-.306.1-.434.182a1.01 1.01 0 0 0-.315.319.862.862 0 0 0-.122.469c0 .172.033.317.101.434a.872.872 0 0 0 .27.287c.112.074.238.135.378.182.14.046.284.086.434.119l.437.094c.142.03.268.069.378.116.11.046.198.106.266.178a.397.397 0 0 1 .102.284.436.436 0 0 1-.084.276.546.546 0 0 1-.214.165 1.09 1.09 0 0 1-.283.077 2.186 2.186 0 0 1-.294.021c-.122 0-.24-.012-.354-.035a1.004 1.004 0 0 1-.308-.116.65.65 0 0 1-.22-.213.658.658 0 0 1-.091-.336h-.595zm3.946-3.129h.595v-.728h-.595v.728zm0 4.27h.595v-3.619h-.595v3.619zm2.512-4.704h-.595v1.085h-.616v.525h.616v2.303c0 .168.017.303.049.406a.497.497 0 0 0 .151.238.58.58 0 0 0 .266.115c.11.021.241.032.395.032h.455v-.525h-.273c-.093 0-.169-.004-.227-.011a.303.303 0 0 1-.137-.045.18.18 0 0 1-.066-.098.632.632 0 0 1-.018-.168v-2.247h.721v-.525h-.721v-1.085zm4.667 1.085h-.63l-1.015 2.961h-.014l-1.057-2.961h-.672l1.435 3.598-.245.616a.708.708 0 0 1-.196.245.475.475 0 0 1-.294.084c-.06 0-.12-.01-.178-.028l-.172-.056v.546c.066.023.133.039.203.049.07.009.14.014.21.014.131 0 .248-.018.35-.053a.717.717 0 0 0 .273-.168c.08-.077.153-.176.221-.297.067-.122.136-.271.206-.448l1.575-4.102zm3.042 1.228a1.26 1.26 0 0 1 .241-.43 1.063 1.063 0 0 1 .798-.357c.154 0 .3.03.438.091.137.06.258.149.36.266.103.116.183.26.242.43.058.17.087.365.087.585 0 .219-.029.414-.087.584-.059.17-.139.313-.242.427a1.056 1.056 0 0 1-.798.354 1.06 1.06 0 0 1-.798-.354 1.227 1.227 0 0 1-.241-.427 1.78 1.78 0 0 1-.088-.584c0-.22.029-.415.088-.585zm-.606 1.327a1.605 1.605 0 0 0 .886 1.001c.217.098.47.147.759.147.285 0 .537-.049.756-.147.22-.098.404-.233.553-.403.15-.17.262-.37.336-.598a2.37 2.37 0 0 0 .112-.742c0-.266-.037-.515-.112-.746a1.666 1.666 0 0 0-.336-.602 1.577 1.577 0 0 0-.553-.402 1.834 1.834 0 0 0-.756-.147c-.289 0-.542.049-.759.147a1.602 1.602 0 0 0-.886 1.004c-.074.231-.112.48-.112.746s.038.513.112.742zm4.454 1.064h.595v-3.094h.7v-.525h-.7v-.504c0-.159.039-.266.119-.322a.575.575 0 0 1 .336-.084c.051 0 .107.003.168.01.06.007.116.02.168.039v-.518a1.398 1.398 0 0 0-.385-.056c-.327 0-.576.075-.746.227-.17.152-.255.375-.255.669v.539h-.609v.525h.609v3.094zm4.668-4.704h-.595v1.085h-.616v.525h.616v2.303c0 .168.017.303.049.406a.497.497 0 0 0 .151.238.58.58 0 0 0 .266.115c.11.021.241.032.395.032h.455v-.525h-.273c-.093 0-.169-.004-.227-.011a.303.303 0 0 1-.137-.045.18.18 0 0 1-.066-.098.632.632 0 0 1-.018-.168v-2.247h.721v-.525h-.721v-1.085zm1.52 4.704h.595v-2.044c0-.164.022-.314.067-.452.044-.138.11-.258.199-.36a.887.887 0 0 1 .333-.238 1.21 1.21 0 0 1 .472-.084c.229 0 .408.065.539.196.131.13.196.308.196.532v2.45h.595v-2.38c0-.196-.02-.375-.059-.536-.04-.161-.109-.3-.207-.416a.97.97 0 0 0-.385-.273 1.559 1.559 0 0 0-.595-.098 1.61 1.61 0 0 0-.658.143 1.118 1.118 0 0 0-.283.193.808.808 0 0 0-.2.28h-.014v-1.911h-.595v4.998zm4.493-2.156c.01-.14.04-.272.091-.396a1.07 1.07 0 0 1 .21-.325.96.96 0 0 1 .319-.221c.123-.054.262-.08.416-.08a1.018 1.018 0 0 1 .949.623c.053.126.085.259.094.399h-2.079zm2.065 1.008c-.051.238-.158.415-.322.532a1.036 1.036 0 0 1-.616.175c-.196 0-.366-.033-.511-.098a1.019 1.019 0 0 1-.357-.263 1.033 1.033 0 0 1-.203-.378 1.454 1.454 0 0 1-.056-.451h2.709c.01-.22-.01-.451-.059-.693a2.008 2.008 0 0 0-.266-.672 1.59 1.59 0 0 0-.511-.508c-.213-.133-.48-.199-.802-.199-.247 0-.475.046-.682.14a1.59 1.59 0 0 0-.539.392c-.152.168-.27.367-.354.598a2.188 2.188 0 0 0-.126.753c.01.275.051.529.123.763.073.233.181.434.326.602.145.168.324.299.537.395.213.096.464.144.754.144.412 0 .753-.105 1.024-.315.272-.21.447-.516.526-.917h-.595zm5.082-3.248h.014l.833 2.331h-1.694l.847-2.331zm-2.303 4.396h.686l.56-1.505h2.114l.546 1.505h.735l-1.953-4.998h-.735l-1.953 4.998zm5.261 0h.595v-1.61c0-.229.023-.434.07-.616.046-.182.121-.336.224-.462a.953.953 0 0 1 .406-.287c.168-.066.371-.098.609-.098v-.63c-.322-.01-.588.056-.798.196-.21.14-.388.357-.532.651h-.014v-.763h-.56v3.619zm3.56-4.704h-.595v1.085h-.616v.525h.616v2.303c0 .168.016.303.049.406a.504.504 0 0 0 .15.238.585.585 0 0 0 .266.115c.11.021.242.032.396.032h.455v-.525h-.273a1.99 1.99 0 0 1-.228-.011.298.298 0 0 1-.136-.045.176.176 0 0 1-.067-.098.683.683 0 0 1-.017-.168v-2.247h.721v-.525h-.721v-1.085zm1.318 3.563c.009.224.056.414.14.57.084.156.196.282.336.378.14.096.3.166.479.21.18.044.373.067.578.067.182 0 .365-.019.549-.056.185-.037.35-.1.497-.189.147-.088.266-.205.357-.352.091-.147.137-.327.137-.541a.842.842 0 0 0-.102-.432.89.89 0 0 0-.266-.29 1.416 1.416 0 0 0-.378-.185 4.757 4.757 0 0 0-.437-.119c-.14-.032-.28-.064-.42-.094a2.42 2.42 0 0 1-.378-.113.918.918 0 0 1-.277-.166.334.334 0 0 1-.108-.26c0-.09.023-.165.07-.226a.482.482 0 0 1 .182-.144.908.908 0 0 1 .248-.074c.091-.014.181-.021.27-.021.098 0 .195.01.29.031a.835.835 0 0 1 .259.102.574.574 0 0 1 .291.476h.595a1.334 1.334 0 0 0-.14-.55.938.938 0 0 0-.319-.35 1.318 1.318 0 0 0-.462-.182 2.866 2.866 0 0 0-.563-.052c-.159 0-.319.019-.48.059-.161.04-.305.1-.434.182a1.01 1.01 0 0 0-.315.319.871.871 0 0 0-.122.469c0 .172.034.317.101.434a.872.872 0 0 0 .27.287c.112.074.238.135.378.182.14.046.285.086.434.119l.437.094c.143.03.269.069.378.116.11.046.199.106.266.178a.397.397 0 0 1 .102.284.436.436 0 0 1-.084.276.54.54 0 0 1-.214.165 1.08 1.08 0 0 1-.283.077 2.186 2.186 0 0 1-.294.021 1.8 1.8 0 0 1-.354-.035 1.004 1.004 0 0 1-.308-.116.65.65 0 0 1-.22-.213.668.668 0 0 1-.091-.336h-.595zm-87.422-7.774h3.976v-.56H48.5l3.101-3.878v-.56h-3.654v.56h2.87l-3.108 3.878v.56zm7.69-3.619h-.595v2.044c0 .163-.022.314-.067.451a1.032 1.032 0 0 1-.199.361.898.898 0 0 1-.333.238 1.21 1.21 0 0 1-.472.084c-.229 0-.409-.066-.539-.196-.131-.131-.196-.308-.196-.532v-2.45h-.595v2.38c0 .196.02.374.059.535.04.161.109.3.207.417a.99.99 0 0 0 .385.273c.158.065.357.098.595.098.261 0 .491-.054.689-.161.199-.108.361-.273.487-.497h.014v.574h.56v-3.619zm-2.478-.595h.63v-.728h-.63v.728zm1.316 0h.63v-.728h-.63v.728zm2.216 4.214h.595v-1.61c0-.229.023-.434.07-.616.047-.182.121-.336.224-.462a.96.96 0 0 1 .406-.287c.168-.066.371-.098.609-.098v-.63c-.322-.01-.588.056-.798.196-.21.14-.387.357-.532.651h-.014v-.763h-.56v3.619zm5.592-2.457a1.474 1.474 0 0 0-.164-.557 1.19 1.19 0 0 0-.34-.388c-.14-.103-.3-.179-.479-.228a2.19 2.19 0 0 0-.578-.073c-.289 0-.54.05-.752.15-.213.101-.39.238-.532.413a1.752 1.752 0 0 0-.319.616 2.66 2.66 0 0 0-.105.76c0 .27.036.519.109.745.072.227.179.421.322.585.142.163.319.29.532.381.212.091.456.137.731.137.458 0 .821-.124 1.092-.371.271-.248.439-.593.504-1.036h-.609c-.037.275-.14.491-.308.647-.168.157-.396.235-.686.235a.986.986 0 0 1-.486-.112.952.952 0 0 1-.326-.298 1.296 1.296 0 0 1-.185-.423 1.999 1.999 0 0 1-.06-.49c0-.182.019-.358.056-.529a1.32 1.32 0 0 1 .186-.451.956.956 0 0 1 .346-.315c.145-.08.325-.119.539-.119.248 0 .447.063.599.189.151.126.25.303.297.532h.616zm.861 2.457h.595v-2.044c0-.164.022-.314.067-.452.044-.137.11-.258.199-.36a.887.887 0 0 1 .333-.238 1.21 1.21 0 0 1 .472-.084c.229 0 .408.065.539.196.131.13.196.308.196.532v2.45h.595v-2.38c0-.196-.02-.375-.059-.536-.04-.161-.109-.3-.207-.416a.97.97 0 0 0-.385-.273 1.555 1.555 0 0 0-.595-.098 1.61 1.61 0 0 0-.658.143 1.136 1.136 0 0 0-.283.193.808.808 0 0 0-.2.28h-.014v-1.911h-.595v4.998zm4.494-2.156c.009-.14.039-.272.091-.396.051-.123.121-.232.21-.325a.946.946 0 0 1 .318-.221c.124-.053.263-.08.417-.08a1.034 1.034 0 0 1 .731.297c.091.091.163.2.217.326.054.126.085.259.095.399H67.4zm2.065 1.008c-.052.238-.159.415-.322.532a1.04 1.04 0 0 1-.616.175c-.196 0-.367-.033-.511-.098a1 1 0 0 1-.56-.641 1.397 1.397 0 0 1-.056-.451h2.709a2.894 2.894 0 0 0-.06-.693 2.008 2.008 0 0 0-.266-.672 1.58 1.58 0 0 0-.511-.508c-.212-.133-.479-.199-.802-.199a1.6 1.6 0 0 0-1.221.532c-.152.168-.27.367-.353.598a2.188 2.188 0 0 0-.126.753c.009.275.05.529.122.763.073.233.181.434.326.602.145.168.324.3.537.395.213.096.464.144.754.144.412 0 .753-.105 1.024-.315.272-.21.447-.516.527-.917h-.595zm1.46 1.148h.595v-1.61c0-.229.024-.434.07-.616a1.2 1.2 0 0 1 .224-.462.96.96 0 0 1 .406-.287c.168-.066.371-.098.609-.098v-.63c-.322-.01-.588.056-.798.196-.21.14-.387.357-.532.651h-.014v-.763h-.56v3.619zm4.466 0h.665v-2.289h2.632v2.289h.665v-4.998h-.665v2.149h-2.632v-2.149h-.665v4.998zm5.653-2.391c.059-.17.139-.314.242-.43.102-.117.223-.206.36-.266.138-.061.284-.091.438-.091a1.063 1.063 0 0 1 .798.357c.102.116.183.26.241.43.059.171.088.365.088.585 0 .219-.029.414-.088.584a1.218 1.218 0 0 1-.241.427 1.047 1.047 0 0 1-.798.354 1.043 1.043 0 0 1-.798-.354 1.22 1.22 0 0 1-.242-.427 1.807 1.807 0 0 1-.087-.584c0-.22.029-.414.087-.585zm-.605 1.327c.074.228.186.428.336.598.149.171.332.305.549.403.217.098.47.147.76.147.284 0 .536-.049.756-.147.219-.098.403-.232.553-.403.149-.17.261-.37.336-.598.074-.229.112-.476.112-.742s-.038-.515-.112-.746a1.595 1.595 0 0 0-.889-1.004 1.84 1.84 0 0 0-.756-.147c-.29 0-.543.049-.76.147-.217.098-.4.232-.549.402-.15.171-.262.371-.336.602-.075.231-.112.48-.112.746s.037.513.112.742zm7.373-1.393a1.474 1.474 0 0 0-.165-.557 1.176 1.176 0 0 0-.339-.388 1.44 1.44 0 0 0-.48-.228 2.182 2.182 0 0 0-.577-.073c-.29 0-.54.05-.753.15a1.52 1.52 0 0 0-.532.413 1.767 1.767 0 0 0-.318.616 2.66 2.66 0 0 0-.105.76c0 .27.036.519.108.745.073.227.18.421.322.585.143.163.32.29.532.381.213.091.456.137.732.137.457 0 .821-.124 1.092-.371.27-.248.438-.593.504-1.036h-.609c-.038.275-.14.491-.308.647-.168.157-.397.235-.686.235a.988.988 0 0 1-.487-.112.95.95 0 0 1-.325-.298 1.319 1.319 0 0 1-.186-.423 2.048 2.048 0 0 1-.059-.49c0-.182.018-.358.056-.529a1.32 1.32 0 0 1 .185-.451.96.96 0 0 1 .347-.315 1.1 1.1 0 0 1 .539-.119c.247 0 .447.063.598.189a.898.898 0 0 1 .298.532h.616zm.861 2.457h.595v-2.044c0-.164.022-.314.066-.452a1.03 1.03 0 0 1 .2-.36.875.875 0 0 1 .332-.238c.133-.056.291-.084.473-.084.228 0 .408.065.539.196.13.13.196.308.196.532v2.45h.595v-2.38c0-.196-.02-.375-.06-.536a1 1 0 0 0-.206-.416.976.976 0 0 0-.385-.273 1.559 1.559 0 0 0-.595-.098 1.619 1.619 0 0 0-.658.143 1.141 1.141 0 0 0-.284.193.805.805 0 0 0-.199.28h-.014v-1.911h-.595v4.998zm3.844-1.141c.009.224.056.414.14.57.084.157.196.283.336.378.14.096.3.166.48.21.179.045.372.067.577.067.182 0 .365-.019.55-.056.184-.037.35-.1.497-.188.147-.089.266-.206.357-.353.091-.146.136-.327.136-.541a.852.852 0 0 0-.101-.432.912.912 0 0 0-.266-.29 1.446 1.446 0 0 0-.378-.185 4.551 4.551 0 0 0-.438-.118c-.14-.033-.28-.064-.42-.095a2.42 2.42 0 0 1-.378-.113.899.899 0 0 1-.276-.165.335.335 0 0 1-.109-.261.36.36 0 0 1 .07-.226.482.482 0 0 1 .182-.144.915.915 0 0 1 .249-.074 1.76 1.76 0 0 1 .269-.021c.098 0 .195.01.291.031a.844.844 0 0 1 .259.102.584.584 0 0 1 .29.476h.595a1.334 1.334 0 0 0-.14-.55.943.943 0 0 0-.318-.35 1.318 1.318 0 0 0-.462-.182 2.876 2.876 0 0 0-.564-.052c-.159 0-.318.02-.479.059-.161.04-.306.101-.434.182a.99.99 0 0 0-.315.319.863.863 0 0 0-.123.469c0 .172.034.317.102.434a.859.859 0 0 0 .269.287c.112.074.238.135.378.182.14.046.285.086.434.119l.438.094c.142.031.268.069.378.116a.776.776 0 0 1 .266.178.403.403 0 0 1 .101.284.436.436 0 0 1-.084.276.534.534 0 0 1-.213.165 1.098 1.098 0 0 1-.284.077 2.186 2.186 0 0 1-.294.021c-.121 0-.239-.012-.353-.035a.994.994 0 0 1-.308-.116.644.644 0 0 1-.221-.213.668.668 0 0 1-.091-.336h-.595zm6.991-1.316a1.474 1.474 0 0 0-.164-.557 1.19 1.19 0 0 0-.34-.388c-.14-.103-.3-.179-.479-.228a2.195 2.195 0 0 0-.578-.073c-.289 0-.54.05-.752.15-.213.101-.39.238-.532.413a1.752 1.752 0 0 0-.319.616 2.66 2.66 0 0 0-.105.76c0 .27.036.519.109.745.072.227.179.421.322.585.142.163.319.29.532.381.212.091.456.137.731.137.457 0 .821-.124 1.092-.371.271-.248.439-.593.504-1.036h-.609c-.037.275-.14.491-.308.647-.168.157-.397.235-.686.235a.986.986 0 0 1-.486-.112.952.952 0 0 1-.326-.298 1.296 1.296 0 0 1-.185-.423 1.999 1.999 0 0 1-.06-.49c0-.182.019-.358.056-.529.037-.17.099-.321.186-.451a.948.948 0 0 1 .346-.315c.145-.08.324-.119.539-.119.247 0 .447.063.599.189.151.126.25.303.297.532h.616zm.861 2.457h.595v-2.044c0-.164.022-.314.066-.452a1.03 1.03 0 0 1 .2-.36.883.883 0 0 1 .332-.238c.133-.056.291-.084.473-.084.229 0 .408.065.539.196.131.13.196.308.196.532v2.45h.595v-2.38c0-.196-.02-.375-.06-.536a1 1 0 0 0-.206-.416.97.97 0 0 0-.385-.273 1.559 1.559 0 0 0-.595-.098c-.107 0-.218.011-.333.035a1.394 1.394 0 0 0-.325.108 1.141 1.141 0 0 0-.284.193.819.819 0 0 0-.199.28h-.014v-1.911h-.595v4.998zm7.042-3.619h-.595v2.044c0 .163-.022.314-.067.451-.044.138-.11.258-.199.361a.898.898 0 0 1-.333.238 1.21 1.21 0 0 1-.472.084c-.229 0-.408-.066-.539-.196-.131-.131-.196-.308-.196-.532v-2.45h-.595v2.38c0 .196.02.374.059.535.04.161.109.3.207.417a.99.99 0 0 0 .385.273c.159.065.357.098.595.098.261 0 .491-.054.689-.161.199-.108.361-.273.487-.497h.014v.574h.56v-3.619zm1.083 3.619h.595v-4.998h-.595v4.998zm2.127-2.156c.009-.14.04-.272.091-.396.051-.123.121-.232.21-.325a.96.96 0 0 1 .319-.221c.123-.053.262-.08.416-.08a1.035 1.035 0 0 1 .732.297c.091.091.163.2.217.326.053.126.085.259.094.399h-2.079zm2.065 1.008c-.051.238-.159.415-.322.532a1.038 1.038 0 0 1-.616.175c-.196 0-.366-.033-.511-.098a1 1 0 0 1-.56-.641 1.425 1.425 0 0 1-.056-.451h2.709c.009-.22-.01-.451-.059-.693a2.008 2.008 0 0 0-.266-.672 1.59 1.59 0 0 0-.511-.508c-.213-.133-.48-.199-.802-.199-.247 0-.475.046-.682.14a1.59 1.59 0 0 0-.539.392c-.152.168-.27.367-.354.598a2.188 2.188 0 0 0-.126.753c.009.275.05.529.123.763.072.233.181.434.326.602.145.168.324.3.537.395.212.096.464.144.754.144.411 0 .753-.105 1.024-.315.271-.21.447-.516.526-.917h-.595zm3.766-1.148c.037-.168.098-.318.182-.448a.955.955 0 0 1 .332-.315c.138-.08.31-.119.515-.119.205 0 .38.038.525.115.145.077.262.179.353.305.091.126.158.272.2.437a2.088 2.088 0 0 1 .003 1.012 1.28 1.28 0 0 1-.192.437 1.029 1.029 0 0 1-.343.312c-.14.079-.31.119-.511.119a1.001 1.001 0 0 1-.851-.413 1.349 1.349 0 0 1-.203-.431 1.86 1.86 0 0 1-.066-.493c0-.178.019-.35.056-.518zm2.744-2.702h-.595v1.862h-.014a.952.952 0 0 0-.242-.27 1.401 1.401 0 0 0-.626-.269 1.73 1.73 0 0 0-.301-.028c-.275 0-.517.05-.725.15-.207.101-.38.237-.518.41-.137.172-.24.372-.308.598a2.546 2.546 0 0 0-.101.725c0 .256.035.499.105.728.07.228.174.43.311.605.138.175.311.314.518.417.208.102.452.154.732.154.252 0 .483-.046.693-.137a.893.893 0 0 0 .462-.437h.014v.49h.595v-4.998zm1.519 2.842c.009-.14.039-.272.091-.396.051-.123.121-.232.21-.325a.956.956 0 0 1 .318-.221c.124-.053.263-.08.417-.08a1.039 1.039 0 0 1 .731.297c.091.091.164.2.217.326.054.126.085.259.095.399h-2.079zm2.065 1.008c-.052.238-.159.415-.322.532a1.04 1.04 0 0 1-.616.175c-.196 0-.367-.033-.511-.098a1 1 0 0 1-.56-.641 1.425 1.425 0 0 1-.056-.451h2.709a2.894 2.894 0 0 0-.06-.693 1.987 1.987 0 0 0-.266-.672 1.57 1.57 0 0 0-.511-.508c-.212-.133-.479-.199-.801-.199a1.61 1.61 0 0 0-1.222.532 1.807 1.807 0 0 0-.353.598 2.188 2.188 0 0 0-.126.753c.009.275.05.529.123.763.072.233.181.434.326.602.145.168.324.3.536.395.213.096.465.144.755.144.411 0 .753-.105 1.024-.315.271-.21.446-.516.526-.917h-.595zm1.461 1.148h.595v-1.61c0-.229.023-.434.07-.616.046-.182.121-.336.224-.462a.953.953 0 0 1 .406-.287c.168-.066.371-.098.609-.098v-.63c-.322-.01-.588.056-.798.196-.21.14-.388.357-.532.651h-.014v-.763h-.56v3.619zm4.466 0h.665v-1.75l.833-.777 1.806 2.527h.84l-2.191-2.982 2.107-2.016h-.861l-2.534 2.492v-2.492h-.665v4.998zm7.623-3.619h-.595v2.044c0 .163-.023.314-.067.451a1.032 1.032 0 0 1-.199.361.898.898 0 0 1-.333.238 1.21 1.21 0 0 1-.472.084c-.229 0-.409-.066-.539-.196-.131-.131-.196-.308-.196-.532v-2.45h-.595v2.38c0 .196.019.374.059.535.04.161.109.3.207.417a.99.99 0 0 0 .385.273c.158.065.357.098.595.098.261 0 .491-.054.689-.161a1.24 1.24 0 0 0 .487-.497h.014v.574h.56v-3.619zm-2.478-.595h.63v-.728h-.63v.728zm1.316 0h.63v-.728h-.63v.728zm2.227 4.214h.595v-2.044c0-.164.022-.314.066-.452a1.03 1.03 0 0 1 .2-.36.883.883 0 0 1 .332-.238c.133-.056.291-.084.473-.084.229 0 .408.065.539.196.131.13.196.308.196.532v2.45h.595v-2.38c0-.196-.02-.375-.06-.536a1 1 0 0 0-.206-.416.97.97 0 0 0-.385-.273 1.559 1.559 0 0 0-.595-.098c-.261 0-.491.053-.69.161-.198.107-.36.273-.486.497h-.014v-.574h-.56v3.619zm3.844-1.141c.01.224.056.414.14.57.084.157.196.283.336.378.14.096.3.166.48.21.179.045.372.067.577.067.182 0 .365-.019.55-.056.184-.037.35-.1.497-.188.147-.089.266-.206.357-.353.091-.146.136-.327.136-.541a.852.852 0 0 0-.101-.432.912.912 0 0 0-.266-.29 1.446 1.446 0 0 0-.378-.185 4.474 4.474 0 0 0-.438-.118c-.14-.033-.28-.064-.42-.095a2.42 2.42 0 0 1-.378-.113.899.899 0 0 1-.276-.165.335.335 0 0 1-.109-.261c0-.089.024-.165.07-.226a.49.49 0 0 1 .182-.144.915.915 0 0 1 .249-.074 1.77 1.77 0 0 1 .269-.021c.098 0 .195.01.291.031a.844.844 0 0 1 .259.102.584.584 0 0 1 .29.476h.595a1.319 1.319 0 0 0-.14-.55.943.943 0 0 0-.318-.35 1.318 1.318 0 0 0-.462-.182 2.876 2.876 0 0 0-.564-.052c-.158 0-.318.02-.479.059-.161.04-.306.101-.434.182a.99.99 0 0 0-.315.319.863.863 0 0 0-.123.469c0 .172.034.317.102.434a.859.859 0 0 0 .269.287c.112.074.238.135.378.182.14.046.285.086.434.119l.438.094c.142.031.268.069.378.116a.776.776 0 0 1 .266.178.403.403 0 0 1 .101.284.436.436 0 0 1-.084.276.534.534 0 0 1-.213.165 1.098 1.098 0 0 1-.284.077c-.102.014-.2.021-.294.021-.121 0-.239-.012-.353-.035a.994.994 0 0 1-.308-.116.644.644 0 0 1-.221-.213.668.668 0 0 1-.091-.336h-.595zm4.73-3.563h-.595v1.085h-.616v.525h.616v2.303c0 .168.017.303.049.406a.497.497 0 0 0 .151.238.576.576 0 0 0 .266.115c.109.021.241.032.395.032h.455v-.525h-.273c-.093 0-.169-.004-.227-.011a.299.299 0 0 1-.137-.045.174.174 0 0 1-.066-.098.632.632 0 0 1-.018-.168v-2.247h.721v-.525h-.721v-1.085zm1.871 2.548c.01-.14.04-.272.091-.396.052-.123.122-.232.21-.325a.96.96 0 0 1 .319-.221c.123-.053.262-.08.416-.08a1.035 1.035 0 0 1 .732.297c.091.091.163.2.217.326.053.126.085.259.094.399h-2.079zm2.065 1.008c-.051.238-.158.415-.322.532a1.036 1.036 0 0 1-.616.175c-.196 0-.366-.033-.511-.098a1.019 1.019 0 0 1-.357-.263 1.017 1.017 0 0 1-.203-.378 1.454 1.454 0 0 1-.056-.451h2.709c.01-.22-.01-.451-.059-.693a2.008 2.008 0 0 0-.266-.672 1.59 1.59 0 0 0-.511-.508c-.213-.133-.48-.199-.802-.199-.247 0-.475.046-.682.14a1.59 1.59 0 0 0-.539.392c-.152.168-.27.367-.354.598a2.188 2.188 0 0 0-.126.753c.01.275.05.529.123.763.073.233.181.434.326.602.145.168.324.3.537.395.213.096.464.144.754.144.411 0 .753-.105 1.024-.315.271-.21.447-.516.526-.917h-.595zM.717 23.572h15.312V19.18H7.605l8.04-8.904v-3.84H1.173v4.392h7.512L.717 19.444v4.128zm69.613 0h1.361V18.9c0-.373.05-.717.152-1.032.101-.315.253-.589.456-.824.202-.235.456-.416.76-.544.304-.128.664-.192 1.08-.192.522 0 .933.149 1.231.448.299.299.448.704.448 1.216v5.6h1.36v-5.44c0-.448-.045-.856-.135-1.224a2.324 2.324 0 0 0-.472-.952 2.234 2.234 0 0 0-.88-.624c-.363-.149-.817-.224-1.361-.224-.245 0-.498.027-.759.08-.262.053-.51.136-.744.248a2.622 2.622 0 0 0-.648.44c-.198.181-.35.395-.456.64h-.032v-4.368H70.33v11.424zm10.14-5.248c.085-.384.224-.725.416-1.024.192-.299.445-.539.76-.72.314-.181.706-.272 1.176-.272.469 0 .869.088 1.2.264.33.176.6.408.808.696.208.288.36.621.456 1a4.83 4.83 0 0 1 .008 2.312 2.997 2.997 0 0 1-.44 1 2.344 2.344 0 0 1-.784.712c-.32.181-.71.272-1.168.272-.438 0-.819-.085-1.144-.256a2.271 2.271 0 0 1-.8-.688 3.037 3.037 0 0 1-.464-.984 4.203 4.203 0 0 1-.152-1.128c0-.405.042-.8.128-1.184zm6.272-6.176h-1.36v4.256h-.032a2.211 2.211 0 0 0-.552-.616 3.151 3.151 0 0 0-.696-.4 3.551 3.551 0 0 0-.736-.216 4.004 4.004 0 0 0-.688-.064c-.63 0-1.182.115-1.656.344-.475.229-.87.541-1.184.936-.315.395-.55.851-.704 1.368a5.739 5.739 0 0 0-.232 1.656c0 .587.08 1.141.24 1.664.16.523.397.984.712 1.384.314.4.709.717 1.184.952.474.234 1.032.352 1.672.352.576 0 1.104-.104 1.584-.312.48-.208.832-.541 1.056-1h.032v1.12h1.36V12.148zm2.215 11.424h1.36v-3.136l1.28-1.184 2.832 4.32h1.728l-3.52-5.264 3.28-3.008h-1.824l-3.776 3.616v-6.768h-1.36v11.424z"></path>
  </g>
</svg>
