<?xml version="1.0" encoding="UTF-8"?>
<svg width="26px" height="26px" viewBox="0 0 26 26" version="1.1" xmlns="http://www.w3.org/2000/svg" xmlns:xlink="http://www.w3.org/1999/xlink">
    <g id="User-Icon" stroke="none" stroke-width="1" fill="none" fill-rule="evenodd">
        <g id="Fill-2" fill="currentColor">
            <path d="M18.3135763,13.9069387 C19.9328254,12.4631582 20.8926009,10.4262755 20.9741742,8.26319427 C21.0540104,6.10011305 20.2487222,3.99754161 18.740548,2.43973537 C17.2341065,0.881840593 15.1549187,0 12.9819837,0 C10.8090487,0 8.72990528,0.881840593 7.22341936,2.43973537 C5.71524511,3.99763014 4.90995248,6.10020157 4.98979308,8.26319427 C5.071362,10.4262755 6.03114197,12.4631582 7.65039107,13.9069387 C5.41676478,14.6867492 3.48161882,16.1374792 2.11042207,18.058477 C0.74109137,19.9812454 0.00346553518,22.2792011 0,24.6357631 C0,25.3896346 0.612644419,26 1.36759793,26 C2.12428421,26 2.73692863,25.3896346 2.73692863,24.6357631 C2.73866584,22.3412601 3.65502887,20.1402441 5.28471901,18.5166163 C6.91440914,16.8929885 9.12199948,15.9800298 11.4267137,15.9783035 L14.5715091,15.9783035 C16.8763122,15.9800343 19.0855909,16.8929885 20.715281,18.5166163 C22.3432384,20.1402441 23.2596058,22.3413486 23.2630714,24.6357631 C23.2630714,25.3896346 23.8757158,26 24.6306693,26 C25.3873556,26 26,25.3896346 26,24.6357631 C25.9930556,22.273845 25.2502448,19.972481 23.8739386,18.0513947 C22.4958996,16.1286263 20.5538226,14.6796669 18.3130875,13.9067616 L18.3135763,13.9069387 Z M12.9819837,2.79562325 C15.0993368,2.79562325 17.006714,4.06650595 17.8172938,6.01516916 C18.6277848,7.96383237 18.1800243,10.2065015 16.6822422,11.6969812 C15.1861973,13.1891872 12.9351989,13.6352864 10.9792153,12.8278105 C9.02327616,12.0203345 7.7476482,10.1200526 7.7476482,8.01048732 C7.7476482,5.13155798 10.0906166,2.79562325 12.9819392,2.79562325 L12.9819837,2.79562325 Z" id="Fill-1"></path>
        </g>
    </g>
</svg>